<?xml version="1.0" encoding="UTF-8" standalone="no"?> <svg xmlns="http://www.w3.org/2000/svg" viewBox="0 0 64 64"><defs><style>.cls-1{fill:#5dab24;}.cls-2{fill:#69c229;}.cls-3{fill:#47821b;}.cls-4{fill:#4c8e1e;}.cls-5{fill:#6dc82a;}.cls-6{fill:#fff;}</style></defs><g id="Flat_Icons" data-name="Flat Icons"><path class="cls-1" d="M54,9A68.46,68.46,0,0,0,39,36c-1,3.25-1.69,6.17-2.25,8.77-.25,1.12-.46,2.18-.65,3.17-.05.31-.11.62-.16.92q-.19-.63-.42-1.29c-1.21-3.65-2.82-8.06-5-13.25.46-.76.94-1.54,1.45-2.32s1.17-1.77,1.75-2.61C44.13,14.38,54,9,54,9Z"/><path class="cls-2" d="M35.94,48.87C34.51,57.07,35,61,35,61H31a73.33,73.33,0,0,0-5-18.1q-.41-.93-.87-1.83A30.41,30.41,0,0,0,22,36c-.39-.5-.79-1-1.21-1.46A58.06,58.06,0,0,0,19,27C14.24,11.76,8.57,8.32,8,8c.73.33,11.33,5.24,19.12,19.16A58.4,58.4,0,0,1,30,33l.55,1.32c2.15,5.19,3.76,9.6,5,13.25q.23.66.42,1.29Z"/><path class="cls-1" d="M31,61H21a116.62,116.62,0,0,0-4.42-12h0A51.59,51.59,0,0,0,14,38,43.75,43.75,0,0,0,3,21c.67.34,10.91,5.61,17.76,13.52.42.47.82,1,1.21,1.46a30.41,30.41,0,0,1,3.14,5.07q.46.9.87,1.83A73.33,73.33,0,0,1,31,61Z"/><path class="cls-1" d="M55,49c0,1.34,0,2.6.09,3.77A22.62,22.62,0,0,0,50,61H47a79.36,79.36,0,0,1,.17-11h0A26.32,26.32,0,0,1,51,44c5.81-6.78,9.75-8.87,10-9C60.69,35.36,55,42.18,55,49Z"/><path class="cls-3" d="M17,61H3a11,11,0,0,0,3-7c0-3.91-2.3-4.81-2.87-5a21.5,21.5,0,0,1,8.31,3.62h0A14,14,0,0,1,13,54C17,58,17,61,17,61Z"/><path class="cls-4" d="M61,20c-.48.36-7.12,5.39-11,16a55.93,55.93,0,0,0-2.83,14h0A79.36,79.36,0,0,0,47,61H35s-.49-3.93.94-12.13h0c.05-.3.11-.61.16-.92.19-1,.4-2,.65-3.17A56.36,56.36,0,0,1,45,32C50.81,25.22,60.38,20.31,61,20Z"/><path class="cls-3" d="M59,54a13.83,13.83,0,0,0,2,7H50a22.62,22.62,0,0,1,5.09-8.23A9.5,9.5,0,0,1,56,52c4-3,5-3,5-3S59,52,59,54Z"/><path class="cls-4" d="M21,61H17s0-3-4-7a14,14,0,0,0-1.56-1.34h0A26.22,26.22,0,0,0,10,47C7.12,39.31,3.31,36.24,3,36c.43.11,7.39,2.1,11,8a45.45,45.45,0,0,1,2.58,5h0A116.62,116.62,0,0,1,21,61Z"/><path class="cls-5" d="M33.75,29.39c-.58.84-1.17,1.71-1.75,2.61s-1,1.56-1.45,2.32L30,33a58.4,58.4,0,0,0-2.84-5.82C30.17,11.69,35,3,35,3A250.37,250.37,0,0,0,33.75,29.39Z"/><path class="cls-6" d="M21.41,26.5a1,1,0,0,1-.93-.64l-.79-2a1,1,0,0,1,.56-1.3,1,1,0,0,1,1.3.57l.79,2a1,1,0,0,1-.56,1.3A1.21,1.21,0,0,1,21.41,26.5Z"/><path class="cls-6" d="M24.23,35.73a1,1,0,0,1-1-.8,29.54,29.54,0,0,0-1.63-5.17,1,1,0,0,1,.53-1.31,1,1,0,0,1,1.31.53,31.29,31.29,0,0,1,1.75,5.54,1,1,0,0,1-.77,1.18Z"/><path class="cls-6" d="M27.2,57.83a1,1,0,0,1-1-.8,46.73,46.73,0,0,0-3.76-11.1,1,1,0,0,1,1.8-.88,49.27,49.27,0,0,1,3.92,11.58,1,1,0,0,1-.78,1.18Z"/><path class="cls-6" d="M29.21,29.38l-.18,0a1,1,0,0,1-.8-1.17l1.1-5.79a1,1,0,1,1,2,.37l-1.1,5.79A1,1,0,0,1,29.21,29.38Z"/><path class="cls-6" d="M30.86,20.6a.84.84,0,0,1-.27,0,1,1,0,0,1-.69-1.23l.45-1.63a1,1,0,1,1,1.93.54l-.46,1.62A1,1,0,0,1,30.86,20.6Z"/><path class="cls-6" d="M39.19,46.31a.89.89,0,0,1-.32-.05A1,1,0,0,1,38.24,45a30,30,0,0,1,2-4.71,1,1,0,0,1,1.36-.41A1,1,0,0,1,42,41.23a28.4,28.4,0,0,0-1.88,4.4A1,1,0,0,1,39.19,46.31Z"/><path class="cls-6" d="M43,39.17a1,1,0,0,1-.34-.06,1,1,0,0,1-.6-1.28A4.94,4.94,0,0,1,43.26,36a1,1,0,0,1,1.4,1.42A3.14,3.14,0,0,0,44,38.51,1,1,0,0,1,43,39.17Z"/><path class="cls-6" d="M54.75,59.8a.94.94,0,0,1-.43-.1,1,1,0,0,1-.48-1.33L55,55.92a1,1,0,0,1,1.81.85l-1.15,2.45A1,1,0,0,1,54.75,59.8Z"/><path class="cls-6" d="M9,54.29H9a1,1,0,1,1,0-2,1,1,0,0,1,1,1A1,1,0,0,1,9,54.29Z"/><path class="cls-6" d="M13.11,59.09a1,1,0,0,1-.84-.45,10.77,10.77,0,0,0-2-2.23,1,1,0,0,1,1.29-1.53,12.47,12.47,0,0,1,2.36,2.66,1,1,0,0,1-.28,1.38A1,1,0,0,1,13.11,59.09Z"/></g></svg>